<?xml version="1.0" encoding="UTF-8" standalone="no"?>
<!-- Created with Inkscape (http://www.inkscape.org/) -->

<svg
   xmlns:dc="http://purl.org/dc/elements/1.1/"
   xmlns:cc="http://creativecommons.org/ns#"
   xmlns:rdf="http://www.w3.org/1999/02/22-rdf-syntax-ns#"
   xmlns:svg="http://www.w3.org/2000/svg"
   xmlns="http://www.w3.org/2000/svg"
   xmlns:sodipodi="http://sodipodi.sourceforge.net/DTD/sodipodi-0.dtd"
   xmlns:inkscape="http://www.inkscape.org/namespaces/inkscape"
   width="31.035624mm"
   height="5.6515002mm"
   viewBox="0 0 31.035624 5.6515002"
   version="1.1"
   id="svg8"
   inkscape:version="0.92.4 (5da689c313, 2019-01-14)"
   sodipodi:docname="logo.svg">
  <defs
     id="defs2" />
  <sodipodi:namedview
     id="base"
     pagecolor="#ffffff"
     bordercolor="#666666"
     borderopacity="1.0"
     inkscape:pageopacity="0.0"
     inkscape:pageshadow="2"
     inkscape:zoom="5.6"
     inkscape:cx="71.437913"
     inkscape:cy="-3.7575596"
     inkscape:document-units="mm"
     inkscape:current-layer="layer1"
     showgrid="false"
     inkscape:window-width="1920"
     inkscape:window-height="1027"
     inkscape:window-x="1352"
     inkscape:window-y="-8"
     inkscape:window-maximized="1"
     fit-margin-top="0"
     fit-margin-left="0"
     fit-margin-right="0"
     fit-margin-bottom="0" />
  <metadata
     id="metadata5">
    <rdf:RDF>
      <cc:Work
         rdf:about="">
        <dc:format>image/svg+xml</dc:format>
        <dc:type
           rdf:resource="http://purl.org/dc/dcmitype/StillImage" />
        <dc:title></dc:title>
      </cc:Work>
    </rdf:RDF>
  </metadata>
  <g
     inkscape:label="Layer 1"
     inkscape:groupmode="layer"
     id="layer1"
     transform="translate(-59.518275,-80.945161)">
    <flowRoot
       xml:space="preserve"
       id="flowRoot815"
       style="font-style:normal;font-weight:normal;font-size:40px;line-height:1.25;font-family:sans-serif;letter-spacing:0px;word-spacing:0px;fill:#000000;fill-opacity:1;stroke:none"
       transform="scale(0.26458333)"><flowRegion
         id="flowRegion817"><rect
           id="rect819"
           width="622.85712"
           height="234.28572"
           x="74.285713"
           y="228.23398" /></flowRegion><flowPara
         id="flowPara821"></flowPara></flowRoot>    <g
       aria-label="Quizario"
       style="font-style:normal;font-weight:normal;font-size:10.58333302px;line-height:1.25;font-family:sans-serif;letter-spacing:0px;word-spacing:0px;fill:#ffffff;fill-opacity:1;stroke:none;stroke-width:0.26458332"
       id="text825"
       transform="translate(0.75595238,1.8426339)">
      <path
         d="m 63.651823,84.598805 -1.524,-1.516944 q -0.08467,-0.08467 -0.08467,-0.1905 0,-0.105834 0.08467,-0.1905 0.07761,-0.07761 0.183444,-0.07761 0.105834,0 0.1905,0.07761 l 1.531056,1.524 q 0.07761,0.08467 0.07761,0.1905 0,0.09878 -0.07761,0.183444 -0.08467,0.08467 -0.1905,0.08467 -0.105833,0 -0.1905,-0.08467 z m -2.074333,0.155222 q -0.613834,0 -1.128889,-0.211666 -0.515056,-0.211667 -0.896056,-0.592667 -0.373944,-0.381 -0.585611,-0.896056 -0.204611,-0.515055 -0.204611,-1.128888 0,-0.606778 0.204611,-1.121834 0.211667,-0.515055 0.585611,-0.896055 0.381,-0.381 0.896056,-0.592667 0.515055,-0.211667 1.128889,-0.211667 0.606777,0 1.121833,0.211667 0.515056,0.211667 0.896056,0.592667 0.381,0.381 0.585611,0.896055 0.211666,0.515056 0.211666,1.121834 0,0.613833 -0.211666,1.128888 -0.204611,0.515056 -0.585611,0.896056 -0.381,0.381 -0.896056,0.592667 -0.515056,0.211666 -1.121833,0.211666 z m 0,-0.522111 q 0.486833,0 0.903111,-0.169333 0.416278,-0.176389 0.719666,-0.486834 0.310445,-0.317499 0.479778,-0.733777 0.169334,-0.423334 0.169334,-0.917222 0,-0.486834 -0.169334,-0.903112 -0.169333,-0.423333 -0.479778,-0.733777 -0.303388,-0.3175 -0.719666,-0.486834 -0.416278,-0.176389 -0.903111,-0.176389 -0.493889,0 -0.910167,0.176389 -0.416278,0.169334 -0.726722,0.486834 -0.303389,0.310444 -0.472722,0.733777 -0.169334,0.416278 -0.169334,0.903112 0,0.493888 0.169334,0.917222 0.169333,0.416278 0.472722,0.733777 0.310444,0.310445 0.726722,0.486834 0.416278,0.169333 0.910167,0.169333 z"
         style="font-style:normal;font-variant:normal;font-weight:normal;font-stretch:normal;font-size:7.05555534px;font-family:Comfortaa;-inkscape-font-specification:Comfortaa;stroke-width:0.26458332;fill:#ffffff;fill-opacity:1"
         id="path4530"
         inkscape:connector-curvature="0" />
      <path
         d="m 67.143441,84.725805 q -0.500944,0 -0.896056,-0.204611 -0.395111,-0.211667 -0.627944,-0.613833 -0.225778,-0.402167 -0.225778,-0.980723 v -1.834444 q 0,-0.112889 0.07761,-0.1905 0.07761,-0.07761 0.1905,-0.07761 0.119945,0 0.197556,0.07761 0.07761,0.07761 0.07761,0.1905 v 1.834444 q 0,0.437445 0.162278,0.719667 0.169333,0.282222 0.451555,0.423333 0.289278,0.141111 0.649111,0.141111 0.345723,0 0.620889,-0.134055 0.282223,-0.134056 0.4445,-0.366889 0.162278,-0.232833 0.162278,-0.529167 h 0.388056 q -0.02117,0.4445 -0.246945,0.797278 -0.218722,0.345722 -0.592666,0.550333 -0.373945,0.197556 -0.832556,0.197556 z m 1.552222,-0.04233 q -0.119944,0 -0.197555,-0.07056 -0.07056,-0.07761 -0.07056,-0.204611 v -3.316111 q 0,-0.119944 0.07056,-0.1905 0.07761,-0.07761 0.197555,-0.07761 0.119945,0 0.197556,0.07761 0.07761,0.07056 0.07761,0.1905 v 3.316111 q 0,0.127 -0.07761,0.204611 -0.07761,0.07056 -0.197556,0.07056 z"
         style="font-style:normal;font-variant:normal;font-weight:normal;font-stretch:normal;font-size:7.05555534px;font-family:Comfortaa;-inkscape-font-specification:Comfortaa;stroke-width:0.26458332;fill:#ffffff;fill-opacity:1"
         id="path4532"
         inkscape:connector-curvature="0" />
      <path
         d="m 70.634067,84.683472 q -0.127,0 -0.204611,-0.07056 -0.07056,-0.07761 -0.07056,-0.204611 V 81.09925 q 0,-0.127 0.07056,-0.197556 0.07761,-0.07761 0.204611,-0.07761 0.119944,0 0.1905,0.07761 0.07761,0.07056 0.07761,0.197556 v 3.309055 q 0,0.127 -0.07761,0.204611 -0.07056,0.07056 -0.1905,0.07056 z m -0.0071,-4.593167 q -0.155222,0 -0.268111,-0.112889 -0.112889,-0.112889 -0.112889,-0.275166 0,-0.176389 0.112889,-0.275167 0.119945,-0.105833 0.275167,-0.105833 0.148167,0 0.261056,0.105833 0.119944,0.09878 0.119944,0.275167 0,0.162277 -0.112889,0.275166 -0.112889,0.112889 -0.275167,0.112889 z"
         style="font-style:normal;font-variant:normal;font-weight:normal;font-stretch:normal;font-size:7.05555534px;font-family:Comfortaa;-inkscape-font-specification:Comfortaa;stroke-width:0.26458332;fill:#ffffff;fill-opacity:1"
         id="path4534"
         inkscape:connector-curvature="0" />
      <path
         d="m 72.603007,84.500027 -0.4445,-0.239889 2.624667,-3.337277 0.366888,0.310444 z m -0.246944,0.183445 q -0.246945,0 -0.246945,-0.246945 0,-0.246944 0.246945,-0.246944 h 2.617611 q 0.246944,0 0.246944,0.246944 0,0.246945 -0.246944,0.246945 z m -0.02822,-3.3655 q -0.246944,0 -0.246944,-0.246945 0,-0.246944 0.246944,-0.246944 h 2.617611 q 0.246945,0 0.246945,0.246944 0,0.246945 -0.246945,0.246945 z"
         style="font-style:normal;font-variant:normal;font-weight:normal;font-stretch:normal;font-size:7.05555534px;font-family:Comfortaa;-inkscape-font-specification:Comfortaa;stroke-width:0.26458332;fill:#ffffff;fill-opacity:1"
         id="path4536"
         inkscape:connector-curvature="0" />
      <path
         d="m 77.72038,84.718749 q -0.543278,0 -0.973667,-0.254 -0.430389,-0.261055 -0.684389,-0.705555 -0.246944,-0.4445 -0.246944,-1.001889 0,-0.564444 0.254,-1.008944 0.261055,-0.4445 0.705555,-0.6985 0.4445,-0.261056 1.001889,-0.261056 0.557389,0 0.994833,0.261056 0.4445,0.254 0.6985,0.6985 0.261056,0.4445 0.268111,1.008944 l -0.218722,0.169333 q 0,0.508 -0.239889,0.917223 -0.232833,0.402166 -0.642055,0.642055 -0.402167,0.232833 -0.917222,0.232833 z m 0.05644,-0.493888 q 0.409222,0 0.726722,-0.1905 0.324556,-0.1905 0.508,-0.522112 0.1905,-0.338666 0.1905,-0.754944 0,-0.423333 -0.1905,-0.754944 -0.183444,-0.331611 -0.508,-0.522111 -0.3175,-0.197556 -0.726722,-0.197556 -0.402167,0 -0.726722,0.197556 -0.324556,0.1905 -0.515056,0.522111 -0.1905,0.331611 -0.1905,0.754944 0,0.416278 0.1905,0.754944 0.1905,0.331612 0.515056,0.522112 0.324555,0.1905 0.726722,0.1905 z m 1.686278,0.458611 q -0.119945,0 -0.197556,-0.07056 -0.07761,-0.07761 -0.07761,-0.197555 v -1.2065 l 0.134056,-0.557389 0.416277,0.105833 v 1.658056 q 0,0.119944 -0.07761,0.197555 -0.07761,0.07056 -0.197555,0.07056 z"
         style="font-style:normal;font-variant:normal;font-weight:normal;font-stretch:normal;font-size:7.05555534px;font-family:Comfortaa;-inkscape-font-specification:Comfortaa;stroke-width:0.26458332;fill:#ffffff;fill-opacity:1"
         id="path4538"
         inkscape:connector-curvature="0" />
      <path
         d="m 81.02756,82.30575 q 0.02117,-0.437445 0.225778,-0.783167 0.211667,-0.345722 0.543278,-0.543278 0.338666,-0.197555 0.747889,-0.197555 0.324555,0 0.500944,0.09172 0.176389,0.09172 0.134056,0.268111 -0.02822,0.105833 -0.09878,0.141111 -0.0635,0.03528 -0.162278,0.02822 -0.09172,-0.0071 -0.211667,-0.01411 -0.395111,-0.03528 -0.705555,0.08467 -0.303389,0.112889 -0.486834,0.352778 -0.176388,0.239888 -0.176388,0.5715 z m 0.04233,2.377722 q -0.127,0 -0.197555,-0.07056 -0.07056,-0.07055 -0.07056,-0.197555 V 81.09219 q 0,-0.127 0.07056,-0.197556 0.07055,-0.07055 0.197555,-0.07055 0.127,0 0.197556,0.07055 0.07056,0.07056 0.07056,0.197556 v 3.323167 q 0,0.127 -0.07056,0.197555 -0.07056,0.07056 -0.197556,0.07056 z"
         style="font-style:normal;font-variant:normal;font-weight:normal;font-stretch:normal;font-size:7.05555534px;font-family:Comfortaa;-inkscape-font-specification:Comfortaa;stroke-width:0.26458332;fill:#ffffff;fill-opacity:1"
         id="path4540"
         inkscape:connector-curvature="0" />
      <path
         d="m 84.428228,84.683472 q -0.127,0 -0.204611,-0.07056 -0.07056,-0.07761 -0.07056,-0.204611 V 81.09925 q 0,-0.127 0.07056,-0.197556 0.07761,-0.07761 0.204611,-0.07761 0.119944,0 0.1905,0.07761 0.07761,0.07056 0.07761,0.197556 v 3.309055 q 0,0.127 -0.07761,0.204611 -0.07056,0.07056 -0.1905,0.07056 z m -0.0071,-4.593167 q -0.155222,0 -0.268111,-0.112889 -0.112889,-0.112889 -0.112889,-0.275166 0,-0.176389 0.112889,-0.275167 0.119945,-0.105833 0.275167,-0.105833 0.148167,0 0.261055,0.105833 0.119945,0.09878 0.119945,0.275167 0,0.162277 -0.112889,0.275166 -0.112889,0.112889 -0.275167,0.112889 z"
         style="font-style:normal;font-variant:normal;font-weight:normal;font-stretch:normal;font-size:7.05555534px;font-family:Comfortaa;-inkscape-font-specification:Comfortaa;stroke-width:0.26458332;fill:#ffffff;fill-opacity:1"
         id="path4542"
         inkscape:connector-curvature="0" />
      <path
         d="m 87.836503,84.718749 q -0.564444,0 -1.008944,-0.254 -0.4445,-0.254 -0.6985,-0.6985 -0.254,-0.4445 -0.254,-1.008944 0,-0.5715 0.254,-1.016 0.254,-0.4445 0.6985,-0.6985 0.4445,-0.254 1.008944,-0.254 0.564444,0 1.001889,0.254 0.4445,0.254 0.6985,0.6985 0.254,0.4445 0.261055,1.016 0,0.564444 -0.261055,1.008944 -0.254,0.4445 -0.6985,0.6985 -0.437445,0.254 -1.001889,0.254 z m 0,-0.493888 q 0.409222,0 0.733778,-0.1905 0.324555,-0.1905 0.508,-0.522112 0.183444,-0.331611 0.183444,-0.754944 0,-0.423333 -0.183444,-0.754944 -0.183445,-0.338667 -0.508,-0.529167 -0.324556,-0.1905 -0.733778,-0.1905 -0.409222,0 -0.733778,0.1905 -0.324555,0.1905 -0.515055,0.529167 -0.183445,0.331611 -0.183445,0.754944 0,0.423333 0.183445,0.754944 0.1905,0.331612 0.515055,0.522112 0.324556,0.1905 0.733778,0.1905 z"
         style="font-style:normal;font-variant:normal;font-weight:normal;font-stretch:normal;font-size:7.05555534px;font-family:Comfortaa;-inkscape-font-specification:Comfortaa;stroke-width:0.26458332;fill:#ffffff;fill-opacity:1"
         id="path4544"
         inkscape:connector-curvature="0" />
    </g>
  </g>
</svg>
