<?xml version="1.0" encoding="UTF-8"?>
<svg version="1.1" viewBox="0 0 24 24" xmlns="http://www.w3.org/2000/svg">
<path d="M0 0h24v24H0V0z" fill="none"/>
<path d="m23 11.01-5-0.01c-0.55 0-1 0.45-1 1v9c0 0.55 0.45 1 1 1h5c0.55 0 1-0.45 1-1v-9c0-0.55-0.45-0.99-1-0.99zm0 8.99h-5v-7h5zm-3-18h-18c-1.11 0-2 0.89-2 2v12c0 1.1 0.89 2 2 2h7v2h-2v2h8v-2h-2v-2h2v-2h-13v-12h18v5h2v-5c0-1.11-0.9-2-2-2zm-18.888 6.6944 0.036728 0.020185-0.32282-0.074117-0.13566 0.82696-0.010866-0.037729 0.21055 0.087565 0.51048-0.07418-0.11873-0.23143 0.22852-0.12352 0.15093-0.50159z"/>
</svg>
