<svg xmlns="http://www.w3.org/2000/svg" xmlns:xlink="http://www.w3.org/1999/xlink" width="109.392" height="30"><path fill="white" d="M11.95 11.69L11.95 11.69Q12.26 11.69 12.47 11.90Q12.67 12.12 12.67 12.43L12.67 12.43L12.67 28.08Q12.67 28.37 12.46 28.58Q12.24 28.80 11.95 28.80L11.95 28.80Q11.64 28.80 11.44 28.58Q11.23 28.37 11.23 28.08L11.23 28.08L11.23 20.42L11.64 20.09Q11.64 20.76 11.28 21.49Q10.92 22.22 10.26 22.85Q9.60 23.47 8.72 23.86Q7.85 24.24 6.84 24.24L6.84 24.24Q5.23 24.24 3.95 23.40Q2.66 22.56 1.92 21.12Q1.18 19.68 1.18 17.83L1.18 17.83Q1.18 16.01 1.92 14.56Q2.66 13.10 3.94 12.28Q5.21 11.45 6.82 11.45L6.82 11.45Q7.80 11.45 8.69 11.81Q9.58 12.17 10.26 12.79Q10.94 13.42 11.34 14.22Q11.74 15.02 11.74 15.89L11.74 15.89L11.23 15.53L11.23 12.43Q11.23 12.12 11.44 11.90Q11.64 11.69 11.95 11.69ZM6.96 22.90L6.96 22.90Q8.26 22.90 9.23 22.24Q10.20 21.58 10.76 20.44Q11.33 19.30 11.33 17.83L11.33 17.83Q11.33 16.39 10.76 15.25Q10.20 14.11 9.22 13.45Q8.23 12.79 6.96 12.79L6.96 12.79Q5.71 12.79 4.72 13.45Q3.72 14.11 3.16 15.25Q2.59 16.39 2.59 17.83L2.59 17.83Q2.59 19.27 3.16 20.42Q3.72 21.58 4.72 22.24Q5.71 22.90 6.96 22.90ZM25.61 11.81L25.61 11.81Q25.92 11.81 26.12 12.02Q26.33 12.24 26.33 12.53L26.33 12.53L26.33 19.30Q26.33 21.67 24.98 22.92Q23.64 24.17 21.36 24.17L21.36 24.17Q19.10 24.17 17.77 22.92Q16.44 21.67 16.44 19.30L16.44 19.30L16.44 12.53Q16.44 12.24 16.64 12.02Q16.85 11.81 17.16 11.81L17.16 11.81Q17.47 11.81 17.68 12.02Q17.88 12.24 17.88 12.53L17.88 12.53L17.88 19.30Q17.88 21.02 18.80 21.92Q19.73 22.82 21.36 22.82L21.36 22.82Q23.02 22.82 23.95 21.92Q24.89 21.02 24.89 19.30L24.89 19.30L24.89 12.53Q24.89 12.24 25.08 12.02Q25.27 11.81 25.61 11.81ZM31.49 12.24L31.49 23.28Q31.49 23.57 31.27 23.78Q31.06 24 30.77 24L30.77 24Q30.46 24 30.25 23.78Q30.05 23.57 30.05 23.28L30.05 23.28L30.05 12.24Q30.05 11.95 30.25 11.74Q30.46 11.52 30.77 11.52L30.77 11.52Q31.08 11.52 31.28 11.74Q31.49 11.95 31.49 12.24L31.49 12.24ZM30.77 9.91L30.77 9.91Q30.26 9.91 30.01 9.68Q29.76 9.46 29.76 9.02L29.76 9.02L29.76 8.78Q29.76 8.35 30.04 8.12Q30.31 7.90 30.79 7.90L30.79 7.90Q31.25 7.90 31.50 8.12Q31.75 8.35 31.75 8.78L31.75 8.78L31.75 9.02Q31.75 9.46 31.50 9.68Q31.25 9.91 30.77 9.91ZM36.05 22.66L42.91 22.66Q43.20 22.66 43.40 22.86Q43.61 23.06 43.61 23.33L43.61 23.33Q43.61 23.62 43.40 23.81Q43.20 24 42.91 24L42.91 24L35.11 24Q34.80 24 34.61 23.76Q34.42 23.52 34.42 23.30L34.42 23.30Q34.42 23.16 34.46 23.03Q34.51 22.90 34.63 22.75L34.63 22.75L41.90 12.70L42.00 12.91L35.71 12.91Q35.42 12.91 35.22 12.71Q35.02 12.50 35.02 12.24L35.02 12.24Q35.02 11.95 35.22 11.76Q35.42 11.57 35.71 11.57L35.71 11.57L43.08 11.57Q43.34 11.57 43.55 11.78Q43.75 12 43.75 12.29L43.75 12.29Q43.75 12.43 43.70 12.55Q43.66 12.67 43.56 12.82L43.56 12.82L36.34 22.78L36.05 22.66ZM58.80 11.64L58.80 11.64Q60.29 11.64 61.34 12.42Q62.40 13.20 62.78 14.74L62.78 14.74L62.45 14.83L62.59 14.40Q62.90 13.68 63.64 13.04Q64.37 12.41 65.30 12.02Q66.24 11.64 67.20 11.64L67.20 11.64Q68.71 11.64 69.64 12.29Q70.56 12.94 70.98 14.03Q71.40 15.12 71.40 16.49L71.40 16.49L71.40 23.28Q71.40 23.57 71.20 23.78Q70.99 24 70.68 24L70.68 24Q70.37 24 70.16 23.78Q69.96 23.57 69.96 23.28L69.96 23.28L69.96 16.56Q69.96 15.58 69.65 14.76Q69.34 13.94 68.66 13.46Q67.99 12.98 66.86 12.98L66.86 12.98Q65.88 12.98 64.98 13.46Q64.08 13.94 63.52 14.76Q62.95 15.58 62.95 16.56L62.95 16.56L62.95 23.28Q62.95 23.57 62.75 23.78Q62.54 24 62.23 24L62.23 24Q61.92 24 61.72 23.78Q61.51 23.57 61.51 23.28L61.51 23.28L61.51 16.49Q61.51 15.50 61.22 14.71Q60.94 13.92 60.29 13.45Q59.64 12.98 58.54 12.98L58.54 12.98Q57.55 12.98 56.68 13.45Q55.80 13.92 55.26 14.71Q54.72 15.50 54.72 16.49L54.72 16.49L54.72 23.28Q54.72 23.57 54.50 23.78Q54.29 24 54.00 24L54.00 24Q53.66 24 53.47 23.78Q53.28 23.57 53.28 23.28L53.28 23.28L53.28 12.53Q53.28 12.24 53.48 12.02Q53.69 11.81 54.00 11.81L54.00 11.81Q54.31 11.81 54.52 12.02Q54.72 12.24 54.72 12.53L54.72 12.53L54.72 14.76L54.07 15.65Q54.14 14.93 54.54 14.21Q54.94 13.49 55.58 12.91Q56.23 12.34 57.06 11.99Q57.89 11.64 58.80 11.64ZM85.22 11.74L85.22 11.74Q85.54 11.74 85.74 11.95Q85.94 12.17 85.94 12.48L85.94 12.48L85.94 23.28Q85.94 23.57 85.73 23.78Q85.51 24 85.22 24L85.22 24Q84.91 24 84.71 23.78Q84.50 23.57 84.50 23.28L84.50 23.28L84.50 20.42L84.91 20.23Q84.91 20.90 84.54 21.60Q84.17 22.30 83.52 22.90Q82.87 23.50 82.00 23.87Q81.12 24.24 80.11 24.24L80.11 24.24Q78.48 24.24 77.20 23.40Q75.91 22.56 75.18 21.10Q74.45 19.63 74.45 17.81L74.45 17.81Q74.45 15.94 75.19 14.51Q75.94 13.08 77.21 12.26Q78.48 11.45 80.09 11.45L80.09 11.45Q81.12 11.45 82.02 11.81Q82.92 12.17 83.59 12.79Q84.26 13.42 84.64 14.22Q85.01 15.02 85.01 15.89L85.01 15.89L84.50 15.53L84.50 12.48Q84.50 12.17 84.71 11.95Q84.91 11.74 85.22 11.74ZM80.23 22.90L80.23 22.90Q81.50 22.90 82.49 22.24Q83.47 21.58 84.04 20.41Q84.60 19.25 84.60 17.81L84.60 17.81Q84.60 16.39 84.04 15.26Q83.47 14.14 82.49 13.46Q81.50 12.79 80.23 12.79L80.23 12.79Q78.98 12.79 77.99 13.44Q76.99 14.09 76.43 15.22Q75.86 16.34 75.86 17.81L75.86 17.81Q75.86 19.25 76.43 20.41Q76.99 21.58 77.98 22.24Q78.96 22.90 80.23 22.90ZM88.92 11.78L88.92 11.78L94.51 11.78Q94.80 11.78 94.99 11.99Q95.18 12.19 95.18 12.48L95.18 12.48Q95.18 12.74 94.99 12.94Q94.80 13.13 94.51 13.13L94.51 13.13L88.92 13.13Q88.63 13.13 88.43 12.92Q88.22 12.72 88.22 12.46L88.22 12.46Q88.22 12.17 88.43 11.98Q88.63 11.78 88.92 11.78ZM91.39 8.40L91.39 8.40Q91.70 8.40 91.91 8.62Q92.11 8.83 92.11 9.12L92.11 9.12L92.11 21.17Q92.11 21.84 92.29 22.18Q92.47 22.51 92.76 22.62Q93.05 22.73 93.34 22.73L93.34 22.73Q93.53 22.73 93.68 22.67Q93.84 22.61 94.03 22.61L94.03 22.61Q94.25 22.61 94.40 22.78Q94.56 22.94 94.56 23.21L94.56 23.21Q94.56 23.54 94.18 23.77Q93.79 24 93.26 24L93.26 24Q93.05 24 92.62 23.96Q92.18 23.93 91.73 23.70Q91.27 23.47 90.97 22.90Q90.67 22.32 90.67 21.24L90.67 21.24L90.67 9.12Q90.67 8.83 90.88 8.62Q91.08 8.40 91.39 8.40ZM103.27 24.24L103.27 24.24Q101.42 24.24 100.01 23.45Q98.59 22.66 97.80 21.24Q97.01 19.82 97.01 17.93L97.01 17.93Q97.01 15.89 97.81 14.45Q98.62 13.01 99.90 12.23Q101.18 11.45 102.62 11.45L102.62 11.45Q103.68 11.45 104.68 11.82Q105.67 12.19 106.45 12.92Q107.23 13.66 107.70 14.71Q108.17 15.77 108.22 17.16L108.22 17.16Q108.19 17.45 107.98 17.65Q107.76 17.86 107.47 17.86L107.47 17.86L97.85 17.86L97.56 16.56L107.02 16.56L106.70 16.85L106.70 16.37Q106.61 15.24 105.98 14.45Q105.36 13.66 104.47 13.25Q103.58 12.84 102.62 12.84L102.62 12.84Q101.90 12.84 101.15 13.13Q100.39 13.42 99.78 14.03Q99.17 14.64 98.78 15.59Q98.40 16.54 98.40 17.83L98.40 17.83Q98.40 19.25 98.98 20.40Q99.55 21.55 100.64 22.22Q101.74 22.90 103.25 22.90L103.25 22.90Q104.09 22.90 104.76 22.66Q105.43 22.42 105.94 22.02Q106.44 21.62 106.78 21.19L106.78 21.19Q107.04 20.98 107.30 20.98L107.30 20.98Q107.54 20.98 107.72 21.17Q107.90 21.36 107.90 21.60L107.90 21.60Q107.90 21.89 107.66 22.10L107.66 22.10Q106.94 22.97 105.79 23.60Q104.64 24.24 103.27 24.24Z"/></svg>
